<?xml version="1.0" encoding="UTF-8" standalone="no"?>
<svg
   xmlns:dc="http://purl.org/dc/elements/1.1/"
   xmlns:cc="http://creativecommons.org/ns#"
   xmlns:rdf="http://www.w3.org/1999/02/22-rdf-syntax-ns#"
   xmlns:svg="http://www.w3.org/2000/svg"
   xmlns="http://www.w3.org/2000/svg"
   xmlns:xlink="http://www.w3.org/1999/xlink"
   xmlns:sodipodi="http://sodipodi.sourceforge.net/DTD/sodipodi-0.dtd"
   xmlns:inkscape="http://www.inkscape.org/namespaces/inkscape"
   width="440pt"
   version="1.1"
   height="60pt"
   viewBox="0 0 440 60"
   id="svg2"
   inkscape:version="0.91 r13725"
   sodipodi:docname="logo.svg">
  <metadata
     id="metadata46">
    <rdf:RDF>
      <cc:Work
         rdf:about="">
        <dc:format>image/svg+xml</dc:format>
        <dc:type
           rdf:resource="http://purl.org/dc/dcmitype/StillImage" />
      </cc:Work>
    </rdf:RDF>
  </metadata>
  <sodipodi:namedview
     pagecolor="#ffffff"
     bordercolor="#666666"
     borderopacity="1"
     objecttolerance="10"
     gridtolerance="10"
     guidetolerance="10"
     inkscape:pageopacity="0"
     inkscape:pageshadow="2"
     inkscape:window-width="1855"
     inkscape:window-height="1056"
     id="namedview44"
     showgrid="false"
     inkscape:zoom="12.136524"
     inkscape:cx="69.40358"
     inkscape:cy="57.392554"
     inkscape:window-x="65"
     inkscape:window-y="24"
     inkscape:window-maximized="1"
     inkscape:current-layer="Background" />
  <defs
     id="defs4">
    <path
       id="GlAESMinistry-Display84"
       d="M4.51 4.78 L4.51 3.82 L0.15 3.82 L0.15 4.78 L1.81 4.78 L1.81 10 L2.85 10 L2.85 4.78 L4.51 4.78 Z" />
    <path
       id="GlAESMinistry-Display104"
       d="M4.2 10 L5.24 10 L5.24 3.82 L4.2 3.82 L4.2 6.34 L1.94 6.34 L1.94 3.82 L0.9 3.82 L0.9 10 L1.94 10 L1.94 7.3 L4.2 7.3 L4.2 10 Z" />
    <path
       id="GlAESMinistry-Display101"
       d="M4.28 10 L4.28 9.04 L1.94 9.04 L1.94 7.2 L3.98 7.2 L3.98 6.24 L1.94 6.24 L1.94 4.78 L4.12 4.78 L4.12 3.82 L0.9 3.82 L0.9 10 L4.28 10 Z" />
    <path
       id="GlAESMinistry-Display76"
       d="M0.9 10 L4.22 10 L4.22 9.04 L1.94 9.04 L1.94 3.82 L0.9 3.82 L0.9 10 Z" />
    <path
       id="GlAESMinistry-Display105"
       d="M0.9 10 L1.95 10 L1.95 3.82 L0.9 3.82 L0.9 10 Z" />
    <path
       id="GlAESMinistry-Display98"
       d="M1.94 6.24 L1.94 4.78 L2.39 4.78 C2.79 4.78 3.12 5.09 3.12 5.5 C3.12 5.91 2.79 6.24 2.39 6.24 L1.94 6.24 L1.94 6.24 Z M3.7 6.64 C3.96 6.34 4.12 5.95 4.12 5.53 C4.12 4.59 3.33 3.82 2.36 3.82 L0.9 3.82 L0.9 10 L2.7 10 C3.69 10 4.49 9.18 4.49 8.16 C4.49 7.52 4.18 6.97 3.7 6.64 L3.7 6.64 Z M2.57 7.2 C3.08 7.2 3.49 7.61 3.49 8.12 C3.49 8.63 3.08 9.04 2.57 9.04 L1.94 9.04 L1.94 7.2 L2.57 7.2 Z" />
    <path
       id="GlAESMinistry-Display114"
       d="M0.9 3.82 L0.9 10 L1.94 10 L1.94 7.5 L2.62 7.5 L4.06 10 L5.22 10 L3.67 7.32 C4.27 7.02 4.68 6.4 4.68 5.67 C4.68 4.65 3.87 3.82 2.87 3.82 L0.9 3.82 L0.9 3.82 Z M1.94 4.78 L2.73 4.78 C3.25 4.78 3.68 5.17 3.68 5.66 C3.68 6.15 3.25 6.54 2.73 6.54 L1.94 6.54 L1.94 4.78 Z" />
    <path
       id="GlAESMinistry-Display97"
       d="M3.76 10 L4.81 10 L2.91 3.82 L1.95 3.82 L0.05 10 L1.1 10 L1.51 8.65 L3.34 8.65 L3.76 10 L3.76 10 Z M2.43 5.66 L3.05 7.69 L1.81 7.69 L2.43 5.66 Z" />
    <path
       id="GlAESMinistry-Display110"
       d="M0.9 10 L1.94 10 L1.96 5.99 L4.38 10 L5.32 10 L5.32 3.82 L4.28 3.82 L4.28 7.88 L1.91 3.82 L0.9 3.82 L0.9 10 Z" />
  </defs>
  <g
     id="Background">
    <use
       height="100%"
       width="100%"
       y="0"
       x="0"
       id="use18"
       transform="matrix(9.5,0,0,9.5,21.575,-35)"
       xlink:href="#GlAESMinistry-Display84"
       style="fill:#000000;stroke:none" />
    <use
       height="100%"
       width="100%"
       y="0"
       x="0"
       id="use20"
       transform="matrix(9.5,0,0,9.5,55.83,-35)"
       xlink:href="#GlAESMinistry-Display104"
       style="fill:#000000;stroke:none" />
    <use
       height="100%"
       width="100%"
       y="0"
       x="0"
       id="use22"
       transform="matrix(9.5,0,0,9.5,102.76,-35)"
       xlink:href="#GlAESMinistry-Display101"
       style="fill:#000000;stroke:none" />
    <use
       height="100%"
       width="100%"
       y="0"
       x="0"
       id="use24"
       transform="matrix(9.5,0,0,9.5,147.22,-35)"
       xlink:href="#GlAESMinistry-Display76"
       style="fill:#000000;stroke:none" />
    <use
       height="100%"
       width="100%"
       y="0"
       x="0"
       id="use26"
       transform="matrix(9.5,0,0,9.5,177.81,-35)"
       xlink:href="#GlAESMinistry-Display105"
       style="fill:#000000;stroke:none" />
    <use
       height="100%"
       width="100%"
       y="0"
       x="0"
       id="use28"
       transform="matrix(9.5,0,0,9.5,193.485,-35)"
       xlink:href="#GlAESMinistry-Display98"
       style="fill:#000000;stroke:none" />
    <use
       height="100%"
       width="100%"
       y="0"
       x="0"
       id="use30"
       transform="matrix(9.5,0,0,9.5,228.065,-35)"
       xlink:href="#GlAESMinistry-Display114"
       style="fill:#000000;stroke:none" />
    <use
       height="100%"
       width="100%"
       y="0"
       x="0"
       id="use32"
       transform="matrix(9.5,0,0,9.5,268.155,-35)"
       xlink:href="#GlAESMinistry-Display97"
       style="fill:#000000;stroke:none" />
    <use
       height="100%"
       width="100%"
       y="0"
       x="0"
       id="use34"
       transform="matrix(9.5,0,0,9.5,302.925,-35)"
       xlink:href="#GlAESMinistry-Display114"
       style="fill:#000000;stroke:none" />
    <use
       height="100%"
       width="100%"
       y="0"
       x="0"
       id="use36"
       transform="matrix(9.5,0,0,9.5,341.115,-35)"
       xlink:href="#GlAESMinistry-Display105"
       style="fill:#000000;stroke:none" />
    <use
       height="100%"
       width="100%"
       y="0"
       x="0"
       id="use38"
       transform="matrix(9.5,0,0,9.5,356.79,-35)"
       xlink:href="#GlAESMinistry-Display97"
       style="fill:#000000;stroke:none" />
    <use
       height="100%"
       width="100%"
       y="0"
       x="0"
       id="use40"
       transform="matrix(9.5,0,0,9.5,391.56,-35)"
       xlink:href="#GlAESMinistry-Display110"
       style="fill:#000000;stroke:none" />
    <path
       inkscape:connector-curvature="0"
       id="path42"
       d="M 0,0 440,0 440,60 0,60 0,0 Z"
       style="fill:none;stroke:none" />
  </g>
</svg>
